solid OpenSCAD_Model
  facet normal 1 -0 0
    outer loop
      vertex 76 0 16
      vertex 76 54 0
      vertex 76 54 16
    endloop
  endfacet
  facet normal 1 0 0
    outer loop
      vertex 76 54 0
      vertex 76 0 16
      vertex 76 0 0
    endloop
  endfacet
  facet normal 0 0 1
    outer loop
      vertex 75 53 20
      vertex 74 52 20
      vertex 75 1 20
    endloop
  endfacet
  facet normal 0 0 1
    outer loop
      vertex 75 53 20
      vertex 2 52 20
      vertex 74 52 20
    endloop
  endfacet
  facet normal 0 0 1
    outer loop
      vertex 2 52 20
      vertex 1 53 20
      vertex 2 2 20
    endloop
  endfacet
  facet normal -0 0 1
    outer loop
      vertex 1 53 20
      vertex 2 52 20
      vertex 75 53 20
    endloop
  endfacet
  facet normal -0 0 1
    outer loop
      vertex 74 2 20
      vertex 75 1 20
      vertex 74 52 20
    endloop
  endfacet
  facet normal -0 0 1
    outer loop
      vertex 2 2 20
      vertex 75 1 20
      vertex 74 2 20
    endloop
  endfacet
  facet normal 0 0 1
    outer loop
      vertex 2 2 20
      vertex 1 1 20
      vertex 75 1 20
    endloop
  endfacet
  facet normal 0 0 1
    outer loop
      vertex 1 1 20
      vertex 2 2 20
      vertex 1 53 20
    endloop
  endfacet
  facet normal 0 0 -1
    outer loop
      vertex 0 0 0
      vertex 76 54 0
      vertex 76 0 0
    endloop
  endfacet
  facet normal -0 0 -1
    outer loop
      vertex 76 54 0
      vertex 0 0 0
      vertex 0 54 0
    endloop
  endfacet
  facet normal -1 0 0
    outer loop
      vertex 0 0 0
      vertex 0 54 16
      vertex 0 54 0
    endloop
  endfacet
  facet normal -1 -0 0
    outer loop
      vertex 0 54 16
      vertex 0 0 0
      vertex 0 0 16
    endloop
  endfacet
  facet normal 0 1 -0
    outer loop
      vertex 76 54 0
      vertex 0 54 16
      vertex 76 54 16
    endloop
  endfacet
  facet normal 0 1 0
    outer loop
      vertex 0 54 16
      vertex 76 54 0
      vertex 0 54 0
    endloop
  endfacet
  facet normal 0 -1 0
    outer loop
      vertex 0 0 0
      vertex 76 0 16
      vertex 0 0 16
    endloop
  endfacet
  facet normal 0 -1 -0
    outer loop
      vertex 76 0 16
      vertex 0 0 0
      vertex 76 0 0
    endloop
  endfacet
  facet normal -1 0 0
    outer loop
      vertex 74 2 2
      vertex 74 52 20
      vertex 74 52 2
    endloop
  endfacet
  facet normal -1 -0 0
    outer loop
      vertex 74 52 20
      vertex 74 2 2
      vertex 74 2 20
    endloop
  endfacet
  facet normal -0 0 1
    outer loop
      vertex 2 52 2
      vertex 74 2 2
      vertex 74 52 2
    endloop
  endfacet
  facet normal 0 0 1
    outer loop
      vertex 74 2 2
      vertex 2 52 2
      vertex 2 2 2
    endloop
  endfacet
  facet normal 1 -0 0
    outer loop
      vertex 2 2 20
      vertex 2 52 2
      vertex 2 52 20
    endloop
  endfacet
  facet normal 1 0 0
    outer loop
      vertex 2 52 2
      vertex 2 2 20
      vertex 2 2 2
    endloop
  endfacet
  facet normal 0 -1 0
    outer loop
      vertex 2 52 2
      vertex 74 52 20
      vertex 2 52 20
    endloop
  endfacet
  facet normal 0 -1 -0
    outer loop
      vertex 74 52 20
      vertex 2 52 2
      vertex 74 52 2
    endloop
  endfacet
  facet normal 0 1 -0
    outer loop
      vertex 74 2 2
      vertex 2 2 20
      vertex 74 2 20
    endloop
  endfacet
  facet normal 0 1 0
    outer loop
      vertex 2 2 20
      vertex 74 2 2
      vertex 2 2 2
    endloop
  endfacet
  facet normal -1 0 0
    outer loop
      vertex 1 1 16
      vertex 1 53 20
      vertex 1 53 16
    endloop
  endfacet
  facet normal -1 -0 0
    outer loop
      vertex 1 53 20
      vertex 1 1 16
      vertex 1 1 20
    endloop
  endfacet
  facet normal 0 0 1
    outer loop
      vertex 76 54 16
      vertex 75 53 16
      vertex 76 0 16
    endloop
  endfacet
  facet normal 0 0 1
    outer loop
      vertex 76 54 16
      vertex 1 53 16
      vertex 75 53 16
    endloop
  endfacet
  facet normal 0 0 1
    outer loop
      vertex 1 53 16
      vertex 0 54 16
      vertex 1 1 16
    endloop
  endfacet
  facet normal -0 0 1
    outer loop
      vertex 0 54 16
      vertex 1 53 16
      vertex 76 54 16
    endloop
  endfacet
  facet normal -0 0 1
    outer loop
      vertex 75 1 16
      vertex 76 0 16
      vertex 75 53 16
    endloop
  endfacet
  facet normal -0 0 1
    outer loop
      vertex 1 1 16
      vertex 76 0 16
      vertex 75 1 16
    endloop
  endfacet
  facet normal 0 0 1
    outer loop
      vertex 1 1 16
      vertex 0 0 16
      vertex 76 0 16
    endloop
  endfacet
  facet normal 0 0 1
    outer loop
      vertex 0 0 16
      vertex 1 1 16
      vertex 0 54 16
    endloop
  endfacet
  facet normal 1 -0 0
    outer loop
      vertex 75 1 20
      vertex 75 53 16
      vertex 75 53 20
    endloop
  endfacet
  facet normal 1 0 0
    outer loop
      vertex 75 53 16
      vertex 75 1 20
      vertex 75 1 16
    endloop
  endfacet
  facet normal 0 -1 0
    outer loop
      vertex 1 1 16
      vertex 75 1 20
      vertex 1 1 20
    endloop
  endfacet
  facet normal 0 -1 -0
    outer loop
      vertex 75 1 20
      vertex 1 1 16
      vertex 75 1 16
    endloop
  endfacet
  facet normal 0 1 -0
    outer loop
      vertex 75 53 16
      vertex 1 53 20
      vertex 75 53 20
    endloop
  endfacet
  facet normal 0 1 0
    outer loop
      vertex 1 53 20
      vertex 75 53 16
      vertex 1 53 16
    endloop
  endfacet
  facet normal 1 -0 0
    outer loop
      vertex 154 0 5
      vertex 154 54 0
      vertex 154 54 5
    endloop
  endfacet
  facet normal 1 0 0
    outer loop
      vertex 154 54 0
      vertex 154 0 5
      vertex 154 0 0
    endloop
  endfacet
  facet normal 0 0 1
    outer loop
      vertex 154 54 5
      vertex 153 53 5
      vertex 154 0 5
    endloop
  endfacet
  facet normal 0 0 1
    outer loop
      vertex 154 54 5
      vertex 79 53 5
      vertex 153 53 5
    endloop
  endfacet
  facet normal 0 0 1
    outer loop
      vertex 79 53 5
      vertex 78 54 5
      vertex 79 1 5
    endloop
  endfacet
  facet normal -0 0 1
    outer loop
      vertex 78 54 5
      vertex 79 53 5
      vertex 154 54 5
    endloop
  endfacet
  facet normal -0 0 1
    outer loop
      vertex 153 1 5
      vertex 154 0 5
      vertex 153 53 5
    endloop
  endfacet
  facet normal -0 0 1
    outer loop
      vertex 79 1 5
      vertex 154 0 5
      vertex 153 1 5
    endloop
  endfacet
  facet normal 0 0 1
    outer loop
      vertex 79 1 5
      vertex 78 0 5
      vertex 154 0 5
    endloop
  endfacet
  facet normal 0 0 1
    outer loop
      vertex 78 0 5
      vertex 79 1 5
      vertex 78 54 5
    endloop
  endfacet
  facet normal 0 0 -1
    outer loop
      vertex 78 0 0
      vertex 154 54 0
      vertex 154 0 0
    endloop
  endfacet
  facet normal -0 0 -1
    outer loop
      vertex 154 54 0
      vertex 78 0 0
      vertex 78 54 0
    endloop
  endfacet
  facet normal -1 0 0
    outer loop
      vertex 78 0 0
      vertex 78 54 5
      vertex 78 54 0
    endloop
  endfacet
  facet normal -1 -0 0
    outer loop
      vertex 78 54 5
      vertex 78 0 0
      vertex 78 0 5
    endloop
  endfacet
  facet normal 0 1 -0
    outer loop
      vertex 154 54 0
      vertex 78 54 5
      vertex 154 54 5
    endloop
  endfacet
  facet normal 0 1 0
    outer loop
      vertex 78 54 5
      vertex 154 54 0
      vertex 78 54 0
    endloop
  endfacet
  facet normal 0 -1 0
    outer loop
      vertex 78 0 0
      vertex 154 0 5
      vertex 78 0 5
    endloop
  endfacet
  facet normal 0 -1 -0
    outer loop
      vertex 154 0 5
      vertex 78 0 0
      vertex 154 0 0
    endloop
  endfacet
  facet normal -1 0 0
    outer loop
      vertex 153 1 1
      vertex 153 53 5
      vertex 153 53 1
    endloop
  endfacet
  facet normal -1 -0 0
    outer loop
      vertex 153 53 5
      vertex 153 1 1
      vertex 153 1 5
    endloop
  endfacet
  facet normal -0 0 1
    outer loop
      vertex 79 53 1
      vertex 153 1 1
      vertex 153 53 1
    endloop
  endfacet
  facet normal 0 0 1
    outer loop
      vertex 153 1 1
      vertex 79 53 1
      vertex 79 1 1
    endloop
  endfacet
  facet normal 1 -0 0
    outer loop
      vertex 79 1 5
      vertex 79 53 1
      vertex 79 53 5
    endloop
  endfacet
  facet normal 1 0 0
    outer loop
      vertex 79 53 1
      vertex 79 1 5
      vertex 79 1 1
    endloop
  endfacet
  facet normal 0 -1 0
    outer loop
      vertex 79 53 1
      vertex 153 53 5
      vertex 79 53 5
    endloop
  endfacet
  facet normal 0 -1 -0
    outer loop
      vertex 153 53 5
      vertex 79 53 1
      vertex 153 53 1
    endloop
  endfacet
  facet normal 0 1 -0
    outer loop
      vertex 153 1 1
      vertex 79 1 5
      vertex 153 1 5
    endloop
  endfacet
  facet normal 0 1 0
    outer loop
      vertex 79 1 5
      vertex 153 1 1
      vertex 79 1 1
    endloop
  endfacet
endsolid OpenSCAD_Model
