solid OpenSCAD_Model
  facet normal 1 -0 0
    outer loop
      vertex 55 0 16
      vertex 55 75 0
      vertex 55 75 16
    endloop
  endfacet
  facet normal 1 0 0
    outer loop
      vertex 55 75 0
      vertex 55 0 16
      vertex 55 0 0
    endloop
  endfacet
  facet normal 0 0 1
    outer loop
      vertex 54 74 20
      vertex 53 73 20
      vertex 54 1 20
    endloop
  endfacet
  facet normal 0 0 1
    outer loop
      vertex 54 74 20
      vertex 2 73 20
      vertex 53 73 20
    endloop
  endfacet
  facet normal 0 0 1
    outer loop
      vertex 2 73 20
      vertex 1 74 20
      vertex 2 2 20
    endloop
  endfacet
  facet normal -0 0 1
    outer loop
      vertex 1 74 20
      vertex 2 73 20
      vertex 54 74 20
    endloop
  endfacet
  facet normal -0 0 1
    outer loop
      vertex 53 2 20
      vertex 54 1 20
      vertex 53 73 20
    endloop
  endfacet
  facet normal 0 0 1
    outer loop
      vertex 37.2454 1 20
      vertex 53 2 20
      vertex 37.2454 2 20
    endloop
  endfacet
  facet normal 0 0 1
    outer loop
      vertex 53 2 20
      vertex 37.2454 1 20
      vertex 54 1 20
    endloop
  endfacet
  facet normal -0 0 1
    outer loop
      vertex 2 2 20
      vertex 17.7546 1 20
      vertex 17.7546 2 20
    endloop
  endfacet
  facet normal 0 0 1
    outer loop
      vertex 2 2 20
      vertex 1 1 20
      vertex 17.7546 1 20
    endloop
  endfacet
  facet normal 0 0 1
    outer loop
      vertex 1 1 20
      vertex 2 2 20
      vertex 1 74 20
    endloop
  endfacet
  facet normal 0 0 -1
    outer loop
      vertex 0 0 0
      vertex 55 75 0
      vertex 55 0 0
    endloop
  endfacet
  facet normal -0 0 -1
    outer loop
      vertex 55 75 0
      vertex 0 0 0
      vertex 0 75 0
    endloop
  endfacet
  facet normal -1 0 0
    outer loop
      vertex 0 0 0
      vertex 0 75 16
      vertex 0 75 0
    endloop
  endfacet
  facet normal -1 -0 0
    outer loop
      vertex 0 75 16
      vertex 0 0 0
      vertex 0 0 16
    endloop
  endfacet
  facet normal 0 1 -0
    outer loop
      vertex 55 75 0
      vertex 0 75 16
      vertex 55 75 16
    endloop
  endfacet
  facet normal 0 1 0
    outer loop
      vertex 0 75 16
      vertex 55 75 0
      vertex 0 75 0
    endloop
  endfacet
  facet normal 0 -1 0
    outer loop
      vertex 0 0 0
      vertex 21.2756 0 16
      vertex 0 0 16
    endloop
  endfacet
  facet normal 0 -1 -0
    outer loop
      vertex 21.2756 0 16
      vertex 0 0 0
      vertex 22 0 15.4737
    endloop
  endfacet
  facet normal 0 -1 -0
    outer loop
      vertex 22 0 15.4737
      vertex 0 0 0
      vertex 24.1008 0 14.5384
    endloop
  endfacet
  facet normal 0 -1 -0
    outer loop
      vertex 26.3502 0 14.0603
      vertex 0 0 0
      vertex 28.6498 0 14.0603
    endloop
  endfacet
  facet normal 0 -1 -0
    outer loop
      vertex 24.1008 0 14.5384
      vertex 0 0 0
      vertex 26.3502 0 14.0603
    endloop
  endfacet
  facet normal 0 -1 0
    outer loop
      vertex 55 0 0
      vertex 33.7244 0 16
      vertex 33 0 15.4737
    endloop
  endfacet
  facet normal 0 -1 0
    outer loop
      vertex 55 0 0
      vertex 33 0 15.4737
      vertex 30.8992 0 14.5384
    endloop
  endfacet
  facet normal 0 -1 0
    outer loop
      vertex 55 0 0
      vertex 30.8992 0 14.5384
      vertex 28.6498 0 14.0603
    endloop
  endfacet
  facet normal 0 -1 0
    outer loop
      vertex 55 0 0
      vertex 28.6498 0 14.0603
      vertex 0 0 0
    endloop
  endfacet
  facet normal 0 -1 0
    outer loop
      vertex 33.7244 0 16
      vertex 55 0 0
      vertex 55 0 16
    endloop
  endfacet
  facet normal -1 0 0
    outer loop
      vertex 53 2 2
      vertex 53 73 20
      vertex 53 73 2
    endloop
  endfacet
  facet normal -1 -0 0
    outer loop
      vertex 53 73 20
      vertex 53 2 2
      vertex 53 2 20
    endloop
  endfacet
  facet normal -0 0 1
    outer loop
      vertex 2 73 2
      vertex 53 2 2
      vertex 53 73 2
    endloop
  endfacet
  facet normal 0 0 1
    outer loop
      vertex 53 2 2
      vertex 2 73 2
      vertex 2 2 2
    endloop
  endfacet
  facet normal 1 -0 0
    outer loop
      vertex 2 2 20
      vertex 2 73 2
      vertex 2 73 20
    endloop
  endfacet
  facet normal 1 0 0
    outer loop
      vertex 2 73 2
      vertex 2 2 20
      vertex 2 2 2
    endloop
  endfacet
  facet normal 0 -1 0
    outer loop
      vertex 2 73 2
      vertex 53 73 20
      vertex 2 73 20
    endloop
  endfacet
  facet normal 0 -1 -0
    outer loop
      vertex 53 73 20
      vertex 2 73 2
      vertex 53 73 2
    endloop
  endfacet
  facet normal 0 1 0
    outer loop
      vertex 53 2 20
      vertex 36.3992 2 18.5344
      vertex 37.2454 2 20
    endloop
  endfacet
  facet normal 0 1 -0
    outer loop
      vertex 53 2 2
      vertex 36.3992 2 18.5344
      vertex 53 2 20
    endloop
  endfacet
  facet normal 0 1 0
    outer loop
      vertex 36.3992 2 18.5344
      vertex 53 2 2
      vertex 34.8604 2 16.8254
    endloop
  endfacet
  facet normal 0 1 0
    outer loop
      vertex 34.8604 2 16.8254
      vertex 53 2 2
      vertex 33 2 15.4737
    endloop
  endfacet
  facet normal 0 1 0
    outer loop
      vertex 28.6498 2 14.0603
      vertex 53 2 2
      vertex 26.3502 2 14.0603
    endloop
  endfacet
  facet normal 0 1 0
    outer loop
      vertex 30.8992 2 14.5384
      vertex 53 2 2
      vertex 28.6498 2 14.0603
    endloop
  endfacet
  facet normal 0 1 0
    outer loop
      vertex 33 2 15.4737
      vertex 53 2 2
      vertex 30.8992 2 14.5384
    endloop
  endfacet
  facet normal 0 1 0
    outer loop
      vertex 18.6008 2 18.5344
      vertex 2 2 20
      vertex 17.7546 2 20
    endloop
  endfacet
  facet normal 0 1 0
    outer loop
      vertex 2 2 2
      vertex 18.6008 2 18.5344
      vertex 20.1396 2 16.8254
    endloop
  endfacet
  facet normal 0 1 0
    outer loop
      vertex 2 2 2
      vertex 20.1396 2 16.8254
      vertex 22 2 15.4737
    endloop
  endfacet
  facet normal 0 1 0
    outer loop
      vertex 2 2 2
      vertex 22 2 15.4737
      vertex 24.1008 2 14.5384
    endloop
  endfacet
  facet normal 0 1 0
    outer loop
      vertex 2 2 2
      vertex 26.3502 2 14.0603
      vertex 53 2 2
    endloop
  endfacet
  facet normal 0 1 0
    outer loop
      vertex 26.3502 2 14.0603
      vertex 2 2 2
      vertex 24.1008 2 14.5384
    endloop
  endfacet
  facet normal 0 1 0
    outer loop
      vertex 18.6008 2 18.5344
      vertex 2 2 2
      vertex 2 2 20
    endloop
  endfacet
  facet normal -1 0 0
    outer loop
      vertex 1 1 16
      vertex 1 74 20
      vertex 1 74 16
    endloop
  endfacet
  facet normal -1 -0 0
    outer loop
      vertex 1 74 20
      vertex 1 1 16
      vertex 1 1 20
    endloop
  endfacet
  facet normal 0 0 1
    outer loop
      vertex 55 75 16
      vertex 54 74 16
      vertex 55 0 16
    endloop
  endfacet
  facet normal 0 0 1
    outer loop
      vertex 55 75 16
      vertex 1 74 16
      vertex 54 74 16
    endloop
  endfacet
  facet normal 0 0 1
    outer loop
      vertex 1 74 16
      vertex 0 75 16
      vertex 1 1 16
    endloop
  endfacet
  facet normal -0 0 1
    outer loop
      vertex 0 75 16
      vertex 1 74 16
      vertex 55 75 16
    endloop
  endfacet
  facet normal -0 0 1
    outer loop
      vertex 54 1 16
      vertex 55 0 16
      vertex 54 74 16
    endloop
  endfacet
  facet normal 0 0 1
    outer loop
      vertex 33.7244 0 16
      vertex 54 1 16
      vertex 33.7244 1 16
    endloop
  endfacet
  facet normal 0 0 1
    outer loop
      vertex 54 1 16
      vertex 33.7244 0 16
      vertex 55 0 16
    endloop
  endfacet
  facet normal -0 0 1
    outer loop
      vertex 1 1 16
      vertex 21.2756 0 16
      vertex 21.2756 1 16
    endloop
  endfacet
  facet normal 0 0 1
    outer loop
      vertex 1 1 16
      vertex 0 0 16
      vertex 21.2756 0 16
    endloop
  endfacet
  facet normal 0 0 1
    outer loop
      vertex 0 0 16
      vertex 1 1 16
      vertex 0 75 16
    endloop
  endfacet
  facet normal 1 -0 0
    outer loop
      vertex 54 1 20
      vertex 54 74 16
      vertex 54 74 20
    endloop
  endfacet
  facet normal 1 0 0
    outer loop
      vertex 54 74 16
      vertex 54 1 20
      vertex 54 1 16
    endloop
  endfacet
  facet normal 0 -1 0
    outer loop
      vertex 1 1 16
      vertex 17.7546 1 20
      vertex 1 1 20
    endloop
  endfacet
  facet normal 0 -1 -0
    outer loop
      vertex 17.7546 1 20
      vertex 1 1 16
      vertex 18.6008 1 18.5344
    endloop
  endfacet
  facet normal 0 -1 -0
    outer loop
      vertex 18.6008 1 18.5344
      vertex 1 1 16
      vertex 20.1396 1 16.8254
    endloop
  endfacet
  facet normal 0 -1 -0
    outer loop
      vertex 20.1396 1 16.8254
      vertex 1 1 16
      vertex 21.2756 1 16
    endloop
  endfacet
  facet normal 0 -1 0
    outer loop
      vertex 54 1 16
      vertex 37.2454 1 20
      vertex 36.3992 1 18.5344
    endloop
  endfacet
  facet normal 0 -1 0
    outer loop
      vertex 54 1 16
      vertex 36.3992 1 18.5344
      vertex 34.8604 1 16.8254
    endloop
  endfacet
  facet normal 0 -1 0
    outer loop
      vertex 54 1 16
      vertex 34.8604 1 16.8254
      vertex 33.7244 1 16
    endloop
  endfacet
  facet normal 0 -1 0
    outer loop
      vertex 37.2454 1 20
      vertex 54 1 16
      vertex 54 1 20
    endloop
  endfacet
  facet normal 0 1 -0
    outer loop
      vertex 54 74 16
      vertex 1 74 20
      vertex 54 74 20
    endloop
  endfacet
  facet normal 0 1 0
    outer loop
      vertex 1 74 20
      vertex 54 74 16
      vertex 1 74 16
    endloop
  endfacet
  facet normal -0.866016 0 0.500016
    outer loop
      vertex 36.3992 1 18.5344
      vertex 37.2454 2 20
      vertex 36.3992 2 18.5344
    endloop
  endfacet
  facet normal -0.866016 0 0.500016
    outer loop
      vertex 37.2454 2 20
      vertex 36.3992 1 18.5344
      vertex 37.2454 1 20
    endloop
  endfacet
  facet normal -0.587807 0 0.809001
    outer loop
      vertex 34.8604 2 16.8254
      vertex 33.7244 1 16
      vertex 34.8604 1 16.8254
    endloop
  endfacet
  facet normal -0.587797 -1.86815e-05 0.809009
    outer loop
      vertex 33 2 15.4737
      vertex 33.7244 1 16
      vertex 34.8604 2 16.8254
    endloop
  endfacet
  facet normal -0.58778 0 0.809021
    outer loop
      vertex 33 0 15.4737
      vertex 33.7244 1 16
      vertex 33 2 15.4737
    endloop
  endfacet
  facet normal -0.58778 0 0.809021
    outer loop
      vertex 33.7244 1 16
      vertex 33 0 15.4737
      vertex 33.7244 0 16
    endloop
  endfacet
  facet normal -0.207901 0 0.97815
    outer loop
      vertex 28.6498 2 14.0603
      vertex 30.8992 0 14.5384
      vertex 30.8992 2 14.5384
    endloop
  endfacet
  facet normal -0.207901 0 0.97815
    outer loop
      vertex 30.8992 0 14.5384
      vertex 28.6498 2 14.0603
      vertex 28.6498 0 14.0603
    endloop
  endfacet
  facet normal -0.406723 0 0.913551
    outer loop
      vertex 30.8992 2 14.5384
      vertex 33 0 15.4737
      vertex 33 2 15.4737
    endloop
  endfacet
  facet normal -0.406723 0 0.913551
    outer loop
      vertex 33 0 15.4737
      vertex 30.8992 2 14.5384
      vertex 30.8992 0 14.5384
    endloop
  endfacet
  facet normal 0.58778 0 0.809021
    outer loop
      vertex 22 2 15.4737
      vertex 21.2756 1 16
      vertex 22 0 15.4737
    endloop
  endfacet
  facet normal 0.587797 -1.86815e-05 0.809009
    outer loop
      vertex 20.1396 2 16.8254
      vertex 21.2756 1 16
      vertex 22 2 15.4737
    endloop
  endfacet
  facet normal 0.587807 0 0.809001
    outer loop
      vertex 21.2756 1 16
      vertex 20.1396 2 16.8254
      vertex 20.1396 1 16.8254
    endloop
  endfacet
  facet normal 0.58778 0 0.809021
    outer loop
      vertex 22 0 15.4737
      vertex 21.2756 1 16
      vertex 21.2756 0 16
    endloop
  endfacet
  facet normal 0.743143 -0 0.669133
    outer loop
      vertex 18.6008 1 18.5344
      vertex 20.1396 2 16.8254
      vertex 18.6008 2 18.5344
    endloop
  endfacet
  facet normal 0.743143 0 0.669133
    outer loop
      vertex 20.1396 2 16.8254
      vertex 18.6008 1 18.5344
      vertex 20.1396 1 16.8254
    endloop
  endfacet
  facet normal -0.743143 0 0.669133
    outer loop
      vertex 34.8604 1 16.8254
      vertex 36.3992 2 18.5344
      vertex 34.8604 2 16.8254
    endloop
  endfacet
  facet normal -0.743143 0 0.669133
    outer loop
      vertex 36.3992 2 18.5344
      vertex 34.8604 1 16.8254
      vertex 36.3992 1 18.5344
    endloop
  endfacet
  facet normal 0.406723 0 0.913551
    outer loop
      vertex 22 2 15.4737
      vertex 24.1008 0 14.5384
      vertex 24.1008 2 14.5384
    endloop
  endfacet
  facet normal 0.406723 0 0.913551
    outer loop
      vertex 24.1008 0 14.5384
      vertex 22 2 15.4737
      vertex 22 0 15.4737
    endloop
  endfacet
  facet normal 0.866016 -0 0.500016
    outer loop
      vertex 17.7546 1 20
      vertex 18.6008 2 18.5344
      vertex 17.7546 2 20
    endloop
  endfacet
  facet normal 0.866016 0 0.500016
    outer loop
      vertex 18.6008 2 18.5344
      vertex 17.7546 1 20
      vertex 18.6008 1 18.5344
    endloop
  endfacet
  facet normal -0 0 1
    outer loop
      vertex 26.3502 2 14.0603
      vertex 28.6498 0 14.0603
      vertex 28.6498 2 14.0603
    endloop
  endfacet
  facet normal 0 0 1
    outer loop
      vertex 28.6498 0 14.0603
      vertex 26.3502 2 14.0603
      vertex 26.3502 0 14.0603
    endloop
  endfacet
  facet normal 0.207901 0 0.97815
    outer loop
      vertex 24.1008 2 14.5384
      vertex 26.3502 0 14.0603
      vertex 26.3502 2 14.0603
    endloop
  endfacet
  facet normal 0.207901 0 0.97815
    outer loop
      vertex 26.3502 0 14.0603
      vertex 24.1008 2 14.5384
      vertex 24.1008 0 14.5384
    endloop
  endfacet
  facet normal 1 -0 0
    outer loop
      vertex 112 0 5
      vertex 112 75 0
      vertex 112 75 5
    endloop
  endfacet
  facet normal 1 0 0
    outer loop
      vertex 112 75 0
      vertex 112 0 5
      vertex 112 0 0
    endloop
  endfacet
  facet normal 0 0 1
    outer loop
      vertex 112 75 5
      vertex 111 74 5
      vertex 112 0 5
    endloop
  endfacet
  facet normal 0 0 1
    outer loop
      vertex 112 75 5
      vertex 58 74 5
      vertex 111 74 5
    endloop
  endfacet
  facet normal 0 0 1
    outer loop
      vertex 58 74 5
      vertex 57 75 5
      vertex 58 1 5
    endloop
  endfacet
  facet normal -0 0 1
    outer loop
      vertex 57 75 5
      vertex 58 74 5
      vertex 112 75 5
    endloop
  endfacet
  facet normal -0 0 1
    outer loop
      vertex 111 1 5
      vertex 112 0 5
      vertex 111 74 5
    endloop
  endfacet
  facet normal -0 0 1
    outer loop
      vertex 58 1 5
      vertex 112 0 5
      vertex 111 1 5
    endloop
  endfacet
  facet normal 0 0 1
    outer loop
      vertex 58 1 5
      vertex 57 0 5
      vertex 112 0 5
    endloop
  endfacet
  facet normal 0 0 1
    outer loop
      vertex 57 0 5
      vertex 58 1 5
      vertex 57 75 5
    endloop
  endfacet
  facet normal 0 0 -1
    outer loop
      vertex 57 0 0
      vertex 112 75 0
      vertex 112 0 0
    endloop
  endfacet
  facet normal -0 0 -1
    outer loop
      vertex 112 75 0
      vertex 57 0 0
      vertex 57 75 0
    endloop
  endfacet
  facet normal -1 0 0
    outer loop
      vertex 57 0 0
      vertex 57 75 5
      vertex 57 75 0
    endloop
  endfacet
  facet normal -1 -0 0
    outer loop
      vertex 57 75 5
      vertex 57 0 0
      vertex 57 0 5
    endloop
  endfacet
  facet normal 0 1 -0
    outer loop
      vertex 112 75 0
      vertex 57 75 5
      vertex 112 75 5
    endloop
  endfacet
  facet normal 0 1 0
    outer loop
      vertex 57 75 5
      vertex 112 75 0
      vertex 57 75 0
    endloop
  endfacet
  facet normal 0 -1 0
    outer loop
      vertex 57 0 0
      vertex 112 0 5
      vertex 57 0 5
    endloop
  endfacet
  facet normal 0 -1 -0
    outer loop
      vertex 112 0 5
      vertex 57 0 0
      vertex 112 0 0
    endloop
  endfacet
  facet normal -1 0 0
    outer loop
      vertex 111 1 2
      vertex 111 74 5
      vertex 111 74 2
    endloop
  endfacet
  facet normal -1 -0 0
    outer loop
      vertex 111 74 5
      vertex 111 1 2
      vertex 111 1 5
    endloop
  endfacet
  facet normal -0 0 1
    outer loop
      vertex 58 74 2
      vertex 111 1 2
      vertex 111 74 2
    endloop
  endfacet
  facet normal 0 0 1
    outer loop
      vertex 111 1 2
      vertex 58 74 2
      vertex 58 1 2
    endloop
  endfacet
  facet normal 1 -0 0
    outer loop
      vertex 58 1 5
      vertex 58 74 2
      vertex 58 74 5
    endloop
  endfacet
  facet normal 1 0 0
    outer loop
      vertex 58 74 2
      vertex 58 1 5
      vertex 58 1 2
    endloop
  endfacet
  facet normal 0 -1 0
    outer loop
      vertex 58 74 2
      vertex 111 74 5
      vertex 58 74 5
    endloop
  endfacet
  facet normal 0 -1 -0
    outer loop
      vertex 111 74 5
      vertex 58 74 2
      vertex 111 74 2
    endloop
  endfacet
  facet normal 0 1 -0
    outer loop
      vertex 111 1 2
      vertex 58 1 5
      vertex 111 1 5
    endloop
  endfacet
  facet normal 0 1 0
    outer loop
      vertex 58 1 5
      vertex 111 1 2
      vertex 58 1 2
    endloop
  endfacet
endsolid OpenSCAD_Model
