solid OpenSCAD_Model
  facet normal 1 -0 0
    outer loop
      vertex 55 0 16
      vertex 55 75 0
      vertex 55 75 16
    endloop
  endfacet
  facet normal 1 0 0
    outer loop
      vertex 55 75 0
      vertex 55 0 16
      vertex 55 0 0
    endloop
  endfacet
  facet normal 0 0 1
    outer loop
      vertex 54 74 20
      vertex 53 73 20
      vertex 54 1 20
    endloop
  endfacet
  facet normal 0 0 1
    outer loop
      vertex 54 74 20
      vertex 2 73 20
      vertex 53 73 20
    endloop
  endfacet
  facet normal 0 0 1
    outer loop
      vertex 2 73 20
      vertex 1 74 20
      vertex 2 2 20
    endloop
  endfacet
  facet normal -0 0 1
    outer loop
      vertex 1 74 20
      vertex 2 73 20
      vertex 54 74 20
    endloop
  endfacet
  facet normal -0 0 1
    outer loop
      vertex 53 2 20
      vertex 54 1 20
      vertex 53 73 20
    endloop
  endfacet
  facet normal -0 0 1
    outer loop
      vertex 2 2 20
      vertex 54 1 20
      vertex 53 2 20
    endloop
  endfacet
  facet normal 0 0 1
    outer loop
      vertex 2 2 20
      vertex 1 1 20
      vertex 54 1 20
    endloop
  endfacet
  facet normal 0 0 1
    outer loop
      vertex 1 1 20
      vertex 2 2 20
      vertex 1 74 20
    endloop
  endfacet
  facet normal 0 0 -1
    outer loop
      vertex 0 0 0
      vertex 55 75 0
      vertex 55 0 0
    endloop
  endfacet
  facet normal -0 0 -1
    outer loop
      vertex 55 75 0
      vertex 0 0 0
      vertex 0 75 0
    endloop
  endfacet
  facet normal -1 0 0
    outer loop
      vertex 0 0 0
      vertex 0 75 16
      vertex 0 75 0
    endloop
  endfacet
  facet normal -1 -0 0
    outer loop
      vertex 0 75 16
      vertex 0 0 0
      vertex 0 0 16
    endloop
  endfacet
  facet normal 0 1 -0
    outer loop
      vertex 55 75 0
      vertex 0 75 16
      vertex 55 75 16
    endloop
  endfacet
  facet normal 0 1 0
    outer loop
      vertex 0 75 16
      vertex 55 75 0
      vertex 0 75 0
    endloop
  endfacet
  facet normal 0 -1 0
    outer loop
      vertex 0 0 0
      vertex 55 0 16
      vertex 0 0 16
    endloop
  endfacet
  facet normal 0 -1 -0
    outer loop
      vertex 55 0 16
      vertex 0 0 0
      vertex 55 0 0
    endloop
  endfacet
  facet normal -1 0 0
    outer loop
      vertex 53 2 2
      vertex 53 73 20
      vertex 53 73 2
    endloop
  endfacet
  facet normal -1 -0 0
    outer loop
      vertex 53 73 20
      vertex 53 2 2
      vertex 53 2 20
    endloop
  endfacet
  facet normal -0 0 1
    outer loop
      vertex 2 73 2
      vertex 53 2 2
      vertex 53 73 2
    endloop
  endfacet
  facet normal 0 0 1
    outer loop
      vertex 53 2 2
      vertex 2 73 2
      vertex 2 2 2
    endloop
  endfacet
  facet normal 1 -0 0
    outer loop
      vertex 2 2 20
      vertex 2 73 2
      vertex 2 73 20
    endloop
  endfacet
  facet normal 1 0 0
    outer loop
      vertex 2 73 2
      vertex 2 2 20
      vertex 2 2 2
    endloop
  endfacet
  facet normal 0 -1 0
    outer loop
      vertex 2 73 2
      vertex 53 73 20
      vertex 2 73 20
    endloop
  endfacet
  facet normal 0 -1 -0
    outer loop
      vertex 53 73 20
      vertex 2 73 2
      vertex 53 73 2
    endloop
  endfacet
  facet normal 0 1 -0
    outer loop
      vertex 53 2 2
      vertex 2 2 20
      vertex 53 2 20
    endloop
  endfacet
  facet normal 0 1 0
    outer loop
      vertex 2 2 20
      vertex 53 2 2
      vertex 2 2 2
    endloop
  endfacet
  facet normal -1 0 0
    outer loop
      vertex 1 1 16
      vertex 1 74 20
      vertex 1 74 16
    endloop
  endfacet
  facet normal -1 -0 0
    outer loop
      vertex 1 74 20
      vertex 1 1 16
      vertex 1 1 20
    endloop
  endfacet
  facet normal 0 0 1
    outer loop
      vertex 55 75 16
      vertex 54 74 16
      vertex 55 0 16
    endloop
  endfacet
  facet normal 0 0 1
    outer loop
      vertex 55 75 16
      vertex 1 74 16
      vertex 54 74 16
    endloop
  endfacet
  facet normal 0 0 1
    outer loop
      vertex 1 74 16
      vertex 0 75 16
      vertex 1 1 16
    endloop
  endfacet
  facet normal -0 0 1
    outer loop
      vertex 0 75 16
      vertex 1 74 16
      vertex 55 75 16
    endloop
  endfacet
  facet normal -0 0 1
    outer loop
      vertex 54 1 16
      vertex 55 0 16
      vertex 54 74 16
    endloop
  endfacet
  facet normal -0 0 1
    outer loop
      vertex 1 1 16
      vertex 55 0 16
      vertex 54 1 16
    endloop
  endfacet
  facet normal 0 0 1
    outer loop
      vertex 1 1 16
      vertex 0 0 16
      vertex 55 0 16
    endloop
  endfacet
  facet normal 0 0 1
    outer loop
      vertex 0 0 16
      vertex 1 1 16
      vertex 0 75 16
    endloop
  endfacet
  facet normal 1 -0 0
    outer loop
      vertex 54 1 20
      vertex 54 74 16
      vertex 54 74 20
    endloop
  endfacet
  facet normal 1 0 0
    outer loop
      vertex 54 74 16
      vertex 54 1 20
      vertex 54 1 16
    endloop
  endfacet
  facet normal 0 -1 0
    outer loop
      vertex 1 1 16
      vertex 54 1 20
      vertex 1 1 20
    endloop
  endfacet
  facet normal 0 -1 -0
    outer loop
      vertex 54 1 20
      vertex 1 1 16
      vertex 54 1 16
    endloop
  endfacet
  facet normal 0 1 -0
    outer loop
      vertex 54 74 16
      vertex 1 74 20
      vertex 54 74 20
    endloop
  endfacet
  facet normal 0 1 0
    outer loop
      vertex 1 74 20
      vertex 54 74 16
      vertex 1 74 16
    endloop
  endfacet
  facet normal 1 -0 0
    outer loop
      vertex 112 0 5
      vertex 112 75 0
      vertex 112 75 5
    endloop
  endfacet
  facet normal 1 0 0
    outer loop
      vertex 112 75 0
      vertex 112 0 5
      vertex 112 0 0
    endloop
  endfacet
  facet normal 0 0 1
    outer loop
      vertex 112 75 5
      vertex 111 74 5
      vertex 112 0 5
    endloop
  endfacet
  facet normal 0 0 1
    outer loop
      vertex 112 75 5
      vertex 58 74 5
      vertex 111 74 5
    endloop
  endfacet
  facet normal 0 0 1
    outer loop
      vertex 58 74 5
      vertex 57 75 5
      vertex 58 1 5
    endloop
  endfacet
  facet normal -0 0 1
    outer loop
      vertex 57 75 5
      vertex 58 74 5
      vertex 112 75 5
    endloop
  endfacet
  facet normal -0 0 1
    outer loop
      vertex 111 1 5
      vertex 112 0 5
      vertex 111 74 5
    endloop
  endfacet
  facet normal -0 0 1
    outer loop
      vertex 58 1 5
      vertex 112 0 5
      vertex 111 1 5
    endloop
  endfacet
  facet normal 0 0 1
    outer loop
      vertex 58 1 5
      vertex 57 0 5
      vertex 112 0 5
    endloop
  endfacet
  facet normal 0 0 1
    outer loop
      vertex 57 0 5
      vertex 58 1 5
      vertex 57 75 5
    endloop
  endfacet
  facet normal 0 0 -1
    outer loop
      vertex 57 0 0
      vertex 112 75 0
      vertex 112 0 0
    endloop
  endfacet
  facet normal -0 0 -1
    outer loop
      vertex 112 75 0
      vertex 57 0 0
      vertex 57 75 0
    endloop
  endfacet
  facet normal -1 0 0
    outer loop
      vertex 57 0 0
      vertex 57 75 5
      vertex 57 75 0
    endloop
  endfacet
  facet normal -1 -0 0
    outer loop
      vertex 57 75 5
      vertex 57 0 0
      vertex 57 0 5
    endloop
  endfacet
  facet normal 0 1 -0
    outer loop
      vertex 112 75 0
      vertex 57 75 5
      vertex 112 75 5
    endloop
  endfacet
  facet normal 0 1 0
    outer loop
      vertex 57 75 5
      vertex 112 75 0
      vertex 57 75 0
    endloop
  endfacet
  facet normal 0 -1 0
    outer loop
      vertex 57 0 0
      vertex 112 0 5
      vertex 57 0 5
    endloop
  endfacet
  facet normal 0 -1 -0
    outer loop
      vertex 112 0 5
      vertex 57 0 0
      vertex 112 0 0
    endloop
  endfacet
  facet normal -1 0 0
    outer loop
      vertex 111 1 1
      vertex 111 74 5
      vertex 111 74 1
    endloop
  endfacet
  facet normal -1 -0 0
    outer loop
      vertex 111 74 5
      vertex 111 1 1
      vertex 111 1 5
    endloop
  endfacet
  facet normal -0 0 1
    outer loop
      vertex 58 74 1
      vertex 111 1 1
      vertex 111 74 1
    endloop
  endfacet
  facet normal 0 0 1
    outer loop
      vertex 111 1 1
      vertex 58 74 1
      vertex 58 1 1
    endloop
  endfacet
  facet normal 1 -0 0
    outer loop
      vertex 58 1 5
      vertex 58 74 1
      vertex 58 74 5
    endloop
  endfacet
  facet normal 1 0 0
    outer loop
      vertex 58 74 1
      vertex 58 1 5
      vertex 58 1 1
    endloop
  endfacet
  facet normal 0 -1 0
    outer loop
      vertex 58 74 1
      vertex 111 74 5
      vertex 58 74 5
    endloop
  endfacet
  facet normal 0 -1 -0
    outer loop
      vertex 111 74 5
      vertex 58 74 1
      vertex 111 74 1
    endloop
  endfacet
  facet normal 0 1 -0
    outer loop
      vertex 111 1 1
      vertex 58 1 5
      vertex 111 1 5
    endloop
  endfacet
  facet normal 0 1 0
    outer loop
      vertex 58 1 5
      vertex 111 1 1
      vertex 58 1 1
    endloop
  endfacet
endsolid OpenSCAD_Model
