solid OpenSCAD_Model
  facet normal 1 -0 0
    outer loop
      vertex 54 0 16
      vertex 54 75 0
      vertex 54 75 16
    endloop
  endfacet
  facet normal 1 0 0
    outer loop
      vertex 54 75 0
      vertex 54 0 16
      vertex 54 0 0
    endloop
  endfacet
  facet normal 0 0 1
    outer loop
      vertex 53 74 20
      vertex 52 73 20
      vertex 53 1 20
    endloop
  endfacet
  facet normal 0 0 1
    outer loop
      vertex 53 74 20
      vertex 2 73 20
      vertex 52 73 20
    endloop
  endfacet
  facet normal 0 0 1
    outer loop
      vertex 2 73 20
      vertex 1 74 20
      vertex 2 2 20
    endloop
  endfacet
  facet normal -0 0 1
    outer loop
      vertex 1 74 20
      vertex 2 73 20
      vertex 53 74 20
    endloop
  endfacet
  facet normal -0 0 1
    outer loop
      vertex 52 2 20
      vertex 53 1 20
      vertex 52 73 20
    endloop
  endfacet
  facet normal 0 0 1
    outer loop
      vertex 36.7454 1 20
      vertex 52 2 20
      vertex 36.7454 2 20
    endloop
  endfacet
  facet normal 0 0 1
    outer loop
      vertex 52 2 20
      vertex 36.7454 1 20
      vertex 53 1 20
    endloop
  endfacet
  facet normal -0 0 1
    outer loop
      vertex 2 2 20
      vertex 17.2546 1 20
      vertex 17.2546 2 20
    endloop
  endfacet
  facet normal 0 0 1
    outer loop
      vertex 2 2 20
      vertex 1 1 20
      vertex 17.2546 1 20
    endloop
  endfacet
  facet normal 0 0 1
    outer loop
      vertex 1 1 20
      vertex 2 2 20
      vertex 1 74 20
    endloop
  endfacet
  facet normal 0 0 -1
    outer loop
      vertex 0 0 0
      vertex 54 75 0
      vertex 54 0 0
    endloop
  endfacet
  facet normal -0 0 -1
    outer loop
      vertex 54 75 0
      vertex 0 0 0
      vertex 0 75 0
    endloop
  endfacet
  facet normal -1 0 0
    outer loop
      vertex 0 0 0
      vertex 0 75 16
      vertex 0 75 0
    endloop
  endfacet
  facet normal -1 -0 0
    outer loop
      vertex 0 75 16
      vertex 0 0 0
      vertex 0 0 16
    endloop
  endfacet
  facet normal 0 1 -0
    outer loop
      vertex 54 75 0
      vertex 0 75 16
      vertex 54 75 16
    endloop
  endfacet
  facet normal 0 1 0
    outer loop
      vertex 0 75 16
      vertex 54 75 0
      vertex 0 75 0
    endloop
  endfacet
  facet normal 0 -1 0
    outer loop
      vertex 0 0 0
      vertex 20.7756 0 16
      vertex 0 0 16
    endloop
  endfacet
  facet normal 0 -1 -0
    outer loop
      vertex 20.7756 0 16
      vertex 0 0 0
      vertex 21.5 0 15.4737
    endloop
  endfacet
  facet normal 0 -1 -0
    outer loop
      vertex 21.5 0 15.4737
      vertex 0 0 0
      vertex 23.6008 0 14.5384
    endloop
  endfacet
  facet normal 0 -1 -0
    outer loop
      vertex 25.8502 0 14.0603
      vertex 0 0 0
      vertex 28.1498 0 14.0603
    endloop
  endfacet
  facet normal 0 -1 -0
    outer loop
      vertex 23.6008 0 14.5384
      vertex 0 0 0
      vertex 25.8502 0 14.0603
    endloop
  endfacet
  facet normal 0 -1 0
    outer loop
      vertex 54 0 0
      vertex 33.2244 0 16
      vertex 32.5 0 15.4737
    endloop
  endfacet
  facet normal 0 -1 0
    outer loop
      vertex 54 0 0
      vertex 32.5 0 15.4737
      vertex 30.3992 0 14.5384
    endloop
  endfacet
  facet normal 0 -1 0
    outer loop
      vertex 54 0 0
      vertex 30.3992 0 14.5384
      vertex 28.1498 0 14.0603
    endloop
  endfacet
  facet normal 0 -1 0
    outer loop
      vertex 54 0 0
      vertex 28.1498 0 14.0603
      vertex 0 0 0
    endloop
  endfacet
  facet normal 0 -1 0
    outer loop
      vertex 33.2244 0 16
      vertex 54 0 0
      vertex 54 0 16
    endloop
  endfacet
  facet normal -1 0 0
    outer loop
      vertex 52 2 2
      vertex 52 73 20
      vertex 52 73 2
    endloop
  endfacet
  facet normal -1 -0 0
    outer loop
      vertex 52 73 20
      vertex 52 2 2
      vertex 52 2 20
    endloop
  endfacet
  facet normal -0 0 1
    outer loop
      vertex 2 73 2
      vertex 52 2 2
      vertex 52 73 2
    endloop
  endfacet
  facet normal 0 0 1
    outer loop
      vertex 52 2 2
      vertex 2 73 2
      vertex 2 2 2
    endloop
  endfacet
  facet normal 1 -0 0
    outer loop
      vertex 2 2 20
      vertex 2 73 2
      vertex 2 73 20
    endloop
  endfacet
  facet normal 1 0 0
    outer loop
      vertex 2 73 2
      vertex 2 2 20
      vertex 2 2 2
    endloop
  endfacet
  facet normal 0 -1 0
    outer loop
      vertex 2 73 2
      vertex 52 73 20
      vertex 2 73 20
    endloop
  endfacet
  facet normal 0 -1 -0
    outer loop
      vertex 52 73 20
      vertex 2 73 2
      vertex 52 73 2
    endloop
  endfacet
  facet normal 0 1 0
    outer loop
      vertex 52 2 20
      vertex 35.8992 2 18.5344
      vertex 36.7454 2 20
    endloop
  endfacet
  facet normal 0 1 -0
    outer loop
      vertex 52 2 2
      vertex 35.8992 2 18.5344
      vertex 52 2 20
    endloop
  endfacet
  facet normal 0 1 0
    outer loop
      vertex 35.8992 2 18.5344
      vertex 52 2 2
      vertex 34.3604 2 16.8254
    endloop
  endfacet
  facet normal 0 1 0
    outer loop
      vertex 34.3604 2 16.8254
      vertex 52 2 2
      vertex 32.5 2 15.4737
    endloop
  endfacet
  facet normal 0 1 0
    outer loop
      vertex 28.1498 2 14.0603
      vertex 52 2 2
      vertex 25.8502 2 14.0603
    endloop
  endfacet
  facet normal 0 1 0
    outer loop
      vertex 30.3992 2 14.5384
      vertex 52 2 2
      vertex 28.1498 2 14.0603
    endloop
  endfacet
  facet normal 0 1 0
    outer loop
      vertex 32.5 2 15.4737
      vertex 52 2 2
      vertex 30.3992 2 14.5384
    endloop
  endfacet
  facet normal 0 1 0
    outer loop
      vertex 18.1008 2 18.5344
      vertex 2 2 20
      vertex 17.2546 2 20
    endloop
  endfacet
  facet normal 0 1 0
    outer loop
      vertex 2 2 2
      vertex 18.1008 2 18.5344
      vertex 19.6396 2 16.8254
    endloop
  endfacet
  facet normal 0 1 0
    outer loop
      vertex 2 2 2
      vertex 19.6396 2 16.8254
      vertex 21.5 2 15.4737
    endloop
  endfacet
  facet normal 0 1 0
    outer loop
      vertex 2 2 2
      vertex 21.5 2 15.4737
      vertex 23.6008 2 14.5384
    endloop
  endfacet
  facet normal 0 1 0
    outer loop
      vertex 2 2 2
      vertex 25.8502 2 14.0603
      vertex 52 2 2
    endloop
  endfacet
  facet normal 0 1 0
    outer loop
      vertex 25.8502 2 14.0603
      vertex 2 2 2
      vertex 23.6008 2 14.5384
    endloop
  endfacet
  facet normal 0 1 0
    outer loop
      vertex 18.1008 2 18.5344
      vertex 2 2 2
      vertex 2 2 20
    endloop
  endfacet
  facet normal -1 0 0
    outer loop
      vertex 1 1 16
      vertex 1 74 20
      vertex 1 74 16
    endloop
  endfacet
  facet normal -1 -0 0
    outer loop
      vertex 1 74 20
      vertex 1 1 16
      vertex 1 1 20
    endloop
  endfacet
  facet normal 0 0 1
    outer loop
      vertex 54 75 16
      vertex 53 74 16
      vertex 54 0 16
    endloop
  endfacet
  facet normal 0 0 1
    outer loop
      vertex 54 75 16
      vertex 1 74 16
      vertex 53 74 16
    endloop
  endfacet
  facet normal 0 0 1
    outer loop
      vertex 1 74 16
      vertex 0 75 16
      vertex 1 1 16
    endloop
  endfacet
  facet normal -0 0 1
    outer loop
      vertex 0 75 16
      vertex 1 74 16
      vertex 54 75 16
    endloop
  endfacet
  facet normal -0 0 1
    outer loop
      vertex 53 1 16
      vertex 54 0 16
      vertex 53 74 16
    endloop
  endfacet
  facet normal 0 0 1
    outer loop
      vertex 33.2244 0 16
      vertex 53 1 16
      vertex 33.2244 1 16
    endloop
  endfacet
  facet normal 0 0 1
    outer loop
      vertex 53 1 16
      vertex 33.2244 0 16
      vertex 54 0 16
    endloop
  endfacet
  facet normal -0 0 1
    outer loop
      vertex 1 1 16
      vertex 20.7756 0 16
      vertex 20.7756 1 16
    endloop
  endfacet
  facet normal 0 0 1
    outer loop
      vertex 1 1 16
      vertex 0 0 16
      vertex 20.7756 0 16
    endloop
  endfacet
  facet normal 0 0 1
    outer loop
      vertex 0 0 16
      vertex 1 1 16
      vertex 0 75 16
    endloop
  endfacet
  facet normal 1 -0 0
    outer loop
      vertex 53 1 20
      vertex 53 74 16
      vertex 53 74 20
    endloop
  endfacet
  facet normal 1 0 0
    outer loop
      vertex 53 74 16
      vertex 53 1 20
      vertex 53 1 16
    endloop
  endfacet
  facet normal 0 -1 0
    outer loop
      vertex 1 1 16
      vertex 17.2546 1 20
      vertex 1 1 20
    endloop
  endfacet
  facet normal 0 -1 -0
    outer loop
      vertex 17.2546 1 20
      vertex 1 1 16
      vertex 18.1008 1 18.5344
    endloop
  endfacet
  facet normal 0 -1 -0
    outer loop
      vertex 18.1008 1 18.5344
      vertex 1 1 16
      vertex 19.6396 1 16.8254
    endloop
  endfacet
  facet normal 0 -1 -0
    outer loop
      vertex 19.6396 1 16.8254
      vertex 1 1 16
      vertex 20.7756 1 16
    endloop
  endfacet
  facet normal 0 -1 0
    outer loop
      vertex 53 1 16
      vertex 36.7454 1 20
      vertex 35.8992 1 18.5344
    endloop
  endfacet
  facet normal 0 -1 0
    outer loop
      vertex 53 1 16
      vertex 35.8992 1 18.5344
      vertex 34.3604 1 16.8254
    endloop
  endfacet
  facet normal 0 -1 0
    outer loop
      vertex 53 1 16
      vertex 34.3604 1 16.8254
      vertex 33.2244 1 16
    endloop
  endfacet
  facet normal 0 -1 0
    outer loop
      vertex 36.7454 1 20
      vertex 53 1 16
      vertex 53 1 20
    endloop
  endfacet
  facet normal 0 1 -0
    outer loop
      vertex 53 74 16
      vertex 1 74 20
      vertex 53 74 20
    endloop
  endfacet
  facet normal 0 1 0
    outer loop
      vertex 1 74 20
      vertex 53 74 16
      vertex 1 74 16
    endloop
  endfacet
  facet normal -0.866016 0 0.500016
    outer loop
      vertex 35.8992 1 18.5344
      vertex 36.7454 2 20
      vertex 35.8992 2 18.5344
    endloop
  endfacet
  facet normal -0.866016 0 0.500016
    outer loop
      vertex 36.7454 2 20
      vertex 35.8992 1 18.5344
      vertex 36.7454 1 20
    endloop
  endfacet
  facet normal -0.587807 0 0.809001
    outer loop
      vertex 34.3604 2 16.8254
      vertex 33.2244 1 16
      vertex 34.3604 1 16.8254
    endloop
  endfacet
  facet normal -0.587797 -1.86815e-05 0.809009
    outer loop
      vertex 32.5 2 15.4737
      vertex 33.2244 1 16
      vertex 34.3604 2 16.8254
    endloop
  endfacet
  facet normal -0.58778 0 0.809021
    outer loop
      vertex 32.5 0 15.4737
      vertex 33.2244 1 16
      vertex 32.5 2 15.4737
    endloop
  endfacet
  facet normal -0.58778 0 0.809021
    outer loop
      vertex 33.2244 1 16
      vertex 32.5 0 15.4737
      vertex 33.2244 0 16
    endloop
  endfacet
  facet normal -0.207901 0 0.97815
    outer loop
      vertex 28.1498 2 14.0603
      vertex 30.3992 0 14.5384
      vertex 30.3992 2 14.5384
    endloop
  endfacet
  facet normal -0.207901 0 0.97815
    outer loop
      vertex 30.3992 0 14.5384
      vertex 28.1498 2 14.0603
      vertex 28.1498 0 14.0603
    endloop
  endfacet
  facet normal -0.406723 0 0.913551
    outer loop
      vertex 30.3992 2 14.5384
      vertex 32.5 0 15.4737
      vertex 32.5 2 15.4737
    endloop
  endfacet
  facet normal -0.406723 0 0.913551
    outer loop
      vertex 32.5 0 15.4737
      vertex 30.3992 2 14.5384
      vertex 30.3992 0 14.5384
    endloop
  endfacet
  facet normal 0.58778 0 0.809021
    outer loop
      vertex 21.5 2 15.4737
      vertex 20.7756 1 16
      vertex 21.5 0 15.4737
    endloop
  endfacet
  facet normal 0.587797 -1.86815e-05 0.809009
    outer loop
      vertex 19.6396 2 16.8254
      vertex 20.7756 1 16
      vertex 21.5 2 15.4737
    endloop
  endfacet
  facet normal 0.587807 0 0.809001
    outer loop
      vertex 20.7756 1 16
      vertex 19.6396 2 16.8254
      vertex 19.6396 1 16.8254
    endloop
  endfacet
  facet normal 0.58778 0 0.809021
    outer loop
      vertex 21.5 0 15.4737
      vertex 20.7756 1 16
      vertex 20.7756 0 16
    endloop
  endfacet
  facet normal 0.743143 -0 0.669133
    outer loop
      vertex 18.1008 1 18.5344
      vertex 19.6396 2 16.8254
      vertex 18.1008 2 18.5344
    endloop
  endfacet
  facet normal 0.743143 0 0.669133
    outer loop
      vertex 19.6396 2 16.8254
      vertex 18.1008 1 18.5344
      vertex 19.6396 1 16.8254
    endloop
  endfacet
  facet normal -0.743143 0 0.669133
    outer loop
      vertex 34.3604 1 16.8254
      vertex 35.8992 2 18.5344
      vertex 34.3604 2 16.8254
    endloop
  endfacet
  facet normal -0.743143 0 0.669133
    outer loop
      vertex 35.8992 2 18.5344
      vertex 34.3604 1 16.8254
      vertex 35.8992 1 18.5344
    endloop
  endfacet
  facet normal 0.406723 0 0.913551
    outer loop
      vertex 21.5 2 15.4737
      vertex 23.6008 0 14.5384
      vertex 23.6008 2 14.5384
    endloop
  endfacet
  facet normal 0.406723 0 0.913551
    outer loop
      vertex 23.6008 0 14.5384
      vertex 21.5 2 15.4737
      vertex 21.5 0 15.4737
    endloop
  endfacet
  facet normal 0.866016 -0 0.500016
    outer loop
      vertex 17.2546 1 20
      vertex 18.1008 2 18.5344
      vertex 17.2546 2 20
    endloop
  endfacet
  facet normal 0.866016 0 0.500016
    outer loop
      vertex 18.1008 2 18.5344
      vertex 17.2546 1 20
      vertex 18.1008 1 18.5344
    endloop
  endfacet
  facet normal -0 0 1
    outer loop
      vertex 25.8502 2 14.0603
      vertex 28.1498 0 14.0603
      vertex 28.1498 2 14.0603
    endloop
  endfacet
  facet normal 0 0 1
    outer loop
      vertex 28.1498 0 14.0603
      vertex 25.8502 2 14.0603
      vertex 25.8502 0 14.0603
    endloop
  endfacet
  facet normal 0.207901 0 0.97815
    outer loop
      vertex 23.6008 2 14.5384
      vertex 25.8502 0 14.0603
      vertex 25.8502 2 14.0603
    endloop
  endfacet
  facet normal 0.207901 0 0.97815
    outer loop
      vertex 25.8502 0 14.0603
      vertex 23.6008 2 14.5384
      vertex 23.6008 0 14.5384
    endloop
  endfacet
  facet normal 1 -0 0
    outer loop
      vertex 110 0 5
      vertex 110 75 0
      vertex 110 75 5
    endloop
  endfacet
  facet normal 1 0 0
    outer loop
      vertex 110 75 0
      vertex 110 0 5
      vertex 110 0 0
    endloop
  endfacet
  facet normal 0 0 1
    outer loop
      vertex 110 75 5
      vertex 109 74 5
      vertex 110 0 5
    endloop
  endfacet
  facet normal 0 0 1
    outer loop
      vertex 110 75 5
      vertex 57 74 5
      vertex 109 74 5
    endloop
  endfacet
  facet normal 0 0 1
    outer loop
      vertex 57 74 5
      vertex 56 75 5
      vertex 57 1 5
    endloop
  endfacet
  facet normal -0 0 1
    outer loop
      vertex 56 75 5
      vertex 57 74 5
      vertex 110 75 5
    endloop
  endfacet
  facet normal -0 0 1
    outer loop
      vertex 109 1 5
      vertex 110 0 5
      vertex 109 74 5
    endloop
  endfacet
  facet normal -0 0 1
    outer loop
      vertex 57 1 5
      vertex 110 0 5
      vertex 109 1 5
    endloop
  endfacet
  facet normal 0 0 1
    outer loop
      vertex 57 1 5
      vertex 56 0 5
      vertex 110 0 5
    endloop
  endfacet
  facet normal 0 0 1
    outer loop
      vertex 56 0 5
      vertex 57 1 5
      vertex 56 75 5
    endloop
  endfacet
  facet normal 0 0 -1
    outer loop
      vertex 56 0 0
      vertex 110 75 0
      vertex 110 0 0
    endloop
  endfacet
  facet normal -0 0 -1
    outer loop
      vertex 110 75 0
      vertex 56 0 0
      vertex 56 75 0
    endloop
  endfacet
  facet normal -1 0 0
    outer loop
      vertex 56 0 0
      vertex 56 75 5
      vertex 56 75 0
    endloop
  endfacet
  facet normal -1 -0 0
    outer loop
      vertex 56 75 5
      vertex 56 0 0
      vertex 56 0 5
    endloop
  endfacet
  facet normal 0 1 -0
    outer loop
      vertex 110 75 0
      vertex 56 75 5
      vertex 110 75 5
    endloop
  endfacet
  facet normal 0 1 0
    outer loop
      vertex 56 75 5
      vertex 110 75 0
      vertex 56 75 0
    endloop
  endfacet
  facet normal 0 -1 0
    outer loop
      vertex 56 0 0
      vertex 110 0 5
      vertex 56 0 5
    endloop
  endfacet
  facet normal 0 -1 -0
    outer loop
      vertex 110 0 5
      vertex 56 0 0
      vertex 110 0 0
    endloop
  endfacet
  facet normal -1 0 0
    outer loop
      vertex 109 1 2
      vertex 109 74 5
      vertex 109 74 2
    endloop
  endfacet
  facet normal -1 -0 0
    outer loop
      vertex 109 74 5
      vertex 109 1 2
      vertex 109 1 5
    endloop
  endfacet
  facet normal -0 0 1
    outer loop
      vertex 57 74 2
      vertex 109 1 2
      vertex 109 74 2
    endloop
  endfacet
  facet normal 0 0 1
    outer loop
      vertex 109 1 2
      vertex 57 74 2
      vertex 57 1 2
    endloop
  endfacet
  facet normal 1 -0 0
    outer loop
      vertex 57 1 5
      vertex 57 74 2
      vertex 57 74 5
    endloop
  endfacet
  facet normal 1 0 0
    outer loop
      vertex 57 74 2
      vertex 57 1 5
      vertex 57 1 2
    endloop
  endfacet
  facet normal 0 -1 0
    outer loop
      vertex 57 74 2
      vertex 109 74 5
      vertex 57 74 5
    endloop
  endfacet
  facet normal 0 -1 -0
    outer loop
      vertex 109 74 5
      vertex 57 74 2
      vertex 109 74 2
    endloop
  endfacet
  facet normal 0 1 -0
    outer loop
      vertex 109 1 2
      vertex 57 1 5
      vertex 109 1 5
    endloop
  endfacet
  facet normal 0 1 0
    outer loop
      vertex 57 1 5
      vertex 109 1 2
      vertex 57 1 2
    endloop
  endfacet
endsolid OpenSCAD_Model
